<?xml version="1.0" standalone="no"?><!DOCTYPE svg PUBLIC "-//W3C//DTD SVG 1.1//EN" "http://www.w3.org/Graphics/SVG/1.1/DTD/svg11.dtd"><svg t="1604817361018" class="icon" viewBox="0 0 1024 1024" version="1.1" xmlns="http://www.w3.org/2000/svg" p-id="2699" xmlns:xlink="http://www.w3.org/1999/xlink" width="200" height="200"><defs><style type="text/css"></style></defs><path d="M694.4768 845.824c-14.336 0-27.0336-10.0352-30.1056-24.576-3.4816-16.5888 7.3728-32.768 23.9616-36.2496 128-26.2144 220.7744-140.0832 220.7744-270.9504 0-152.3712-124.1088-276.48-276.48-276.48-106.0864 0-204.1856 62.0544-249.856 158.1056-5.12 10.6496-15.9744 17.6128-27.648 17.6128h-62.464c-47.3088 0-91.7504 18.6368-125.5424 52.224a176.66048 176.66048 0 0 0-52.224 125.5424c0 98.0992 79.6672 177.7664 177.7664 177.7664h153.6c16.9984 0 30.72 13.7216 30.72 30.72s-13.7216 30.72-30.72 30.72h-153.6c-131.8912 0-239.2064-107.3152-239.2064-239.2064 0-63.6928 24.9856-123.6992 70.2464-168.96s105.2672-70.2464 168.96-70.2464h43.8272c58.9824-107.3152 173.2608-175.5136 296.3456-175.5136 186.368 0 337.92 151.552 337.92 337.92 0 159.744-113.4592 299.008-269.9264 331.1616-2.2528 0.2048-4.3008 0.4096-6.3488 0.4096z" fill="#2F4072" p-id="2700"></path><path d="M578.1504 847.872c-14.7456 0-26.624-11.8784-26.624-26.624V549.888c0-14.7456 11.8784-26.624 26.624-26.624s26.624 11.8784 26.624 26.624V821.248c0 14.7456-12.0832 26.624-26.624 26.624z" fill="#FE76FF" p-id="2701"></path><path d="M479.0272 642.2528c-6.3488 0-12.6976-2.2528-17.8176-6.7584-10.8544-9.8304-11.8784-26.624-2.048-37.6832l98.7136-109.7728a26.624 26.624 0 0 1 37.6832-2.048c10.8544 9.8304 11.8784 26.624 2.048 37.6832l-98.7136 109.7728c-5.3248 5.9392-12.4928 8.8064-19.8656 8.8064z" fill="#FE76FF" p-id="2702"></path><path d="M676.6592 642.2528c-7.3728 0-14.5408-2.8672-19.8656-8.8064l-98.7136-109.7728a26.624 26.624 0 0 1 2.048-37.6832 26.624 26.624 0 0 1 37.6832 2.048L696.32 597.8112a26.624 26.624 0 0 1-19.6608 44.4416z" fill="#FE76FF" p-id="2703"></path></svg>