<?xml version="1.0" standalone="no"?>
<!DOCTYPE svg PUBLIC "-//W3C//DTD SVG 1.1//EN" "http://www.w3.org/Graphics/SVG/1.1/DTD/svg11.dtd"><svg t="1605198465181"
    class="icon" viewBox="0 0 1024 1024" version="1.1" xmlns="http://www.w3.org/2000/svg" p-id="13045"
    xmlns:xlink="http://www.w3.org/1999/xlink" width="16" height="16">
    <defs>
        <style type="text/css"></style>
    </defs>
    <path
        d="M517.12 732.501333c-13.824 0-27.477333-4.096-39.253333-12.117333L145.578667 491.349333a68.642133 68.642133 0 0 1-29.696-56.149333c-0.170667-23.381333 11.264-45.397333 30.378666-58.88L487.765333 134.144c24.234667-17.066667 56.490667-17.578667 80.384-1.024l332.458667 229.034667c18.432 12.629333 29.525333 33.621333 29.696 56.149333 0.170667 23.381333-11.264 45.397333-30.378667 58.88L558.421333 719.36c-12.288 8.704-26.794667 13.141333-41.301333 13.141333z m-0.512-68.266666c0.170667 0.170667 1.194667 0.341333 2.218667-0.512L860.501333 421.546667c2.048-1.536 1.536-3.242667 1.536-3.242667L529.578667 189.269333c-0.170667 0-1.024-0.341333-2.218667 0.512L185.856 431.957333c-2.048 1.536-1.536 3.242667-1.536 3.242667l332.288 229.034667z"
        p-id="13046" fill="#e6e6e6"></path>
    <path
        d="M512.682667 967.68c-12.970667 0-25.770667-3.754667-36.693334-11.264L151.381333 732.672a34.048 34.048 0 0 1-8.704-47.445333c10.752-15.530667 31.914667-19.456 47.445334-8.704l322.730666 222.378666 332.288-235.52c15.36-10.922667 36.693333-7.338667 47.616 8.192 10.922667 15.36 7.338667 36.693333-8.192 47.616L551.253333 955.392c-11.605333 8.192-25.088 12.288-38.570666 12.288z"
        p-id="13047" fill="#e6e6e6"></path>
</svg>