<?xml version="1.0" standalone="no"?><!DOCTYPE svg PUBLIC "-//W3C//DTD SVG 1.1//EN" "http://www.w3.org/Graphics/SVG/1.1/DTD/svg11.dtd"><svg t="1605198618481" class="icon" viewBox="0 0 1024 1024" version="1.1" xmlns="http://www.w3.org/2000/svg" p-id="14650" xmlns:xlink="http://www.w3.org/1999/xlink" width="16" height="16"><defs><style type="text/css"></style></defs><path d="M870.4 358.4h-204.8a102.4 102.4 0 0 1-102.4-102.4V51.2H204.8a51.2 51.2 0 0 0-51.2 51.2v819.2a51.2 51.2 0 0 0 51.2 51.2h614.4a51.2 51.2 0 0 0 51.2-51.2V358.4z m-21.1968-51.2L614.4 72.3968V256a51.2 51.2 0 0 0 51.2 51.2h183.6032z m-277.1968-307.2a102.4 102.4 0 0 1 72.3968 30.0032l247.1936 247.1936A102.4 102.4 0 0 1 921.6 349.5936V921.6a102.4 102.4 0 0 1-102.4 102.4H204.8a102.4 102.4 0 0 1-102.4-102.4V102.4a102.4 102.4 0 0 1 102.4-102.4h367.2064z" fill="#e6e6e6" p-id="14651"></path></svg>